<svg xmlns="http://www.w3.org/2000/svg" viewBox="0 0 1280 720">
  <defs>
    <linearGradient id="bg" x1="0%" y1="0%" x2="100%" y2="100%">
      <stop offset="0%" style="stop-color:#0D1117"/>
      <stop offset="100%" style="stop-color:#161B22"/>
    </linearGradient>
  </defs>
  <!-- Background -->
  <rect width="1280" height="720" fill="url(#bg)" rx="12"/>
  <!-- Window chrome -->
  <rect width="1280" height="48" fill="#161B22" rx="12"/>
  <rect y="36" width="1280" height="12" fill="#161B22"/>
  <circle cx="24" cy="24" r="6" fill="#DA3633"/>
  <circle cx="44" cy="24" r="6" fill="#D29922"/>
  <circle cx="64" cy="24" r="6" fill="#238636"/>
  <!-- Sidebar -->
  <rect x="0" y="48" width="240" height="672" fill="#0D1117"/>
  <rect x="0" y="48" width="240" height="44" fill="#21262D"/>
  <text x="24" y="76" font-family="Inter, sans-serif" font-size="14" fill="#E6EDF3" font-weight="600">DevTasks Manager</text>
  <!-- Sidebar items -->
  <rect x="16" y="112" width="208" height="36" rx="8" fill="#21262D"/>
  <text x="48" y="136" font-family="Inter, sans-serif" font-size="13" fill="#E6EDF3">Dashboard</text>
  <text x="24" y="136" font-family="Inter, sans-serif" font-size="13" fill="#8B949E">📋</text>
  <rect x="16" y="156" width="208" height="36" rx="8" fill="transparent"/>
  <text x="48" y="180" font-family="Inter, sans-serif" font-size="13" fill="#8B949E">My Tasks</text>
  <text x="24" y="180" font-family="Inter, sans-serif" font-size="13" fill="#8B949E">✅</text>
  <rect x="16" y="200" width="208" height="36" rx="8" fill="transparent"/>
  <text x="48" y="224" font-family="Inter, sans-serif" font-size="13" fill="#8B949E">Projects</text>
  <text x="24" y="224" font-family="Inter, sans-serif" font-size="13" fill="#8B949E">📁</text>
  <rect x="16" y="244" width="208" height="36" rx="8" fill="transparent"/>
  <text x="48" y="268" font-family="Inter, sans-serif" font-size="13" fill="#8B949E">Settings</text>
  <text x="24" y="268" font-family="Inter, sans-serif" font-size="13" fill="#8B949E">⚙️</text>
  <!-- Main content header -->
  <text x="272" y="80" font-family="Inter, sans-serif" font-size="20" fill="#E6EDF3" font-weight="600">Task Board</text>
  <rect x="1048" y="60" width="120" height="36" rx="8" fill="#388BFD"/>
  <text x="1072" y="84" font-family="Inter, sans-serif" font-size="13" fill="#fff" font-weight="500">+ New Task</text>
  <!-- Kanban columns -->
  <!-- To Do -->
  <rect x="272" y="112" width="232" height="560" rx="8" fill="#0D1117" stroke="#21262D" stroke-width="1"/>
  <rect x="288" y="128" width="64" height="24" rx="12" fill="#21262D"/>
  <text x="300" y="144" font-family="Inter, sans-serif" font-size="11" fill="#8B949E" font-weight="500">To Do</text>
  <text x="368" y="144" font-family="Inter, sans-serif" font-size="11" fill="#8B949E">3</text>
  <!-- Cards -->
  <rect x="288" y="168" width="200" height="80" rx="8" fill="#161B22" stroke="#21262D" stroke-width="1"/>
  <text x="304" y="192" font-family="Inter, sans-serif" font-size="13" fill="#E6EDF3" font-weight="500">Setup authentication</text>
  <text x="304" y="212" font-family="Inter, sans-serif" font-size="11" fill="#8B949E">JWT + NextAuth integration</text>
  <rect x="304" y="224" width="52" height="20" rx="10" fill="#21262D"/>
  <text x="314" y="238" font-family="Inter, sans-serif" font-size="10" fill="#DA3633">High</text>
  <rect x="288" y="260" width="200" height="80" rx="8" fill="#161B22" stroke="#21262D" stroke-width="1"/>
  <text x="304" y="284" font-family="Inter, sans-serif" font-size="13" fill="#E6EDF3" font-weight="500">Database schema</text>
  <text x="304" y="304" font-family="Inter, sans-serif" font-size="11" fill="#8B949E">Prisma models &amp; migrations</text>
  <rect x="304" y="316" width="60" height="20" rx="10" fill="#21262D"/>
  <text x="314" y="330" font-family="Inter, sans-serif" font-size="10" fill="#D29922">Medium</text>
  <!-- In Progress -->
  <rect x="520" y="112" width="232" height="560" rx="8" fill="#0D1117" stroke="#21262D" stroke-width="1"/>
  <rect x="536" y="128" width="88" height="24" rx="12" fill="#21262D"/>
  <text x="548" y="144" font-family="Inter, sans-serif" font-size="11" fill="#388BFD" font-weight="500">In Progress</text>
  <text x="640" y="144" font-family="Inter, sans-serif" font-size="11" fill="#8B949E">2</text>
  <rect x="536" y="168" width="200" height="80" rx="8" fill="#161B22" stroke="#388BFD" stroke-width="1"/>
  <text x="552" y="192" font-family="Inter, sans-serif" font-size="13" fill="#E6EDF3" font-weight="500">Task CRUD API</text>
  <text x="552" y="212" font-family="Inter, sans-serif" font-size="11" fill="#8B949E">REST endpoints + validation</text>
  <rect x="552" y="224" width="52" height="20" rx="10" fill="#21262D"/>
  <text x="562" y="238" font-family="Inter, sans-serif" font-size="10" fill="#DA3633">High</text>
  <rect x="536" y="260" width="200" height="80" rx="8" fill="#161B22" stroke="#21262D" stroke-width="1"/>
  <text x="552" y="284" font-family="Inter, sans-serif" font-size="13" fill="#E6EDF3" font-weight="500">Kanban UI</text>
  <text x="552" y="304" font-family="Inter, sans-serif" font-size="11" fill="#8B949E">Drag &amp; drop board layout</text>
  <rect x="552" y="316" width="60" height="20" rx="10" fill="#21262D"/>
  <text x="562" y="330" font-family="Inter, sans-serif" font-size="10" fill="#D29922">Medium</text>
  <!-- Done -->
  <rect x="768" y="112" width="232" height="560" rx="8" fill="#0D1117" stroke="#21262D" stroke-width="1"/>
  <rect x="784" y="128" width="56" height="24" rx="12" fill="#21262D"/>
  <text x="796" y="144" font-family="Inter, sans-serif" font-size="11" fill="#238636" font-weight="500">Done</text>
  <text x="856" y="144" font-family="Inter, sans-serif" font-size="11" fill="#8B949E">4</text>
  <rect x="784" y="168" width="200" height="80" rx="8" fill="#161B22" stroke="#21262D" stroke-width="1" opacity="0.7"/>
  <text x="800" y="192" font-family="Inter, sans-serif" font-size="13" fill="#8B949E" font-weight="500"><tspan text-decoration="line-spacing">Project setup</tspan></text>
  <text x="800" y="212" font-family="Inter, sans-serif" font-size="11" fill="#484F58">Next.js + TypeScript config</text>
  <rect x="784" y="260" width="200" height="80" rx="8" fill="#161B22" stroke="#21262D" stroke-width="1" opacity="0.7"/>
  <text x="800" y="284" font-family="Inter, sans-serif" font-size="13" fill="#8B949E" font-weight="500"><tspan text-decoration="line-spacing">Tailwind setup</tspan></text>
  <text x="800" y="304" font-family="Inter, sans-serif" font-size="11" fill="#484F58">Design tokens &amp; config</text>
</svg>