<svg xmlns="http://www.w3.org/2000/svg" viewBox="0 0 128 128"><path fill="#2496ED" d="M124.8 57.6c-1.6-.6-2.4-1-3.6-1.6-.6-1-1.4-2-2.4-2.8-1.6-1.2-3.4-2-5.4-2.4h-.8c-.4-.8-1-1.4-1.6-2-2-2.2-4.4-3.6-7.2-4.2h-.4c-.2 0-.4-.2-.4-.4-.6-2.4-1.6-4.6-3-6.4l-.6-.6c-.4-.4-.8-.6-1.4-.8-.2-.2-.6-.2-.8-.4-1.6-.6-3.2-.8-5-1h-1.4c-1.4-1.6-3-3-5-4l-1.8-1.2c-.6-.4-1.2-.4-2-.4-2.4-.4-5-.2-7.4.6h-.8c-2.6.6-5 1.6-7.2 3l-1.2.8c-.6.4-1 .8-1.4 1.2-.6.6-1 1.4-1.4 2-.8 1.6-1.2 3.4-1.2 5.2v.4c-.8.8-1.4 1.6-2 2.6-.6 1.2-1 2.4-1.2 3.8-.2.8-.2 1.6-.2 2.4v1.2c.2 3.2 1.2 6.2 3 8.8.2.4.6.8 1 1.2l.4.4c2.6 3 6 5 9.8 6 1.6.4 3.2.6 4.8.4 1.2 0 2.4-.2 3.4-.6.6-.2 1.2-.4 1.6-.8.4-.2.6-.6.8-1 .2-.4.4-.8.4-1.2v-.2c0-.2 0-.4-.2-.6v-.4h.2c2.8.2 5.4-.2 7.8-1.2 2-.8 3.8-2 5.2-3.4 1-1 1.8-2.2 2.4-3.4l.4-.8c.2-.6.4-1.2.4-1.8v-.8c.2-.2.2-.4.2-.6.6-.2 1.2-.4 1.6-.6 1.6-.8 3-1.8 4.2-3l.6-.6c.4-.4.6-.8.8-1.4l.4-.6c.2-.4.4-.8.4-1.2.2-.8.2-1.6.2-2.4.2-1.6 0-3.2-.4-4.8zM53.6 82.4h-12v-32h12v32zm0-37.6h-12v-6.4h12v6.4zm8 37.6h-12v-32h12v32zm0-37.6h-12v-6.4h12v6.4zm8 37.6h-12v-32h12v32zm0-37.6h-12v-6.4h12v6.4zm8 37.6h-12v-32h12v32zm0-37.6h-12v-6.4h12v6.4zm8 37.6h-12v-32h12v32zm0-37.6h-12v-6.4h12v6.4z"/></svg>