<svg xmlns="http://www.w3.org/2000/svg" viewBox="0 0 128 128"><path fill="#F05032" d="M124.5 57.3L70.7 3.5c-3.2-3.2-8.4-3.2-11.6 0l-10.4 10.4 13.1 13.1c3.1-1 6.6-.3 9.1 2.1 2.5 2.5 3.2 6.1 2.1 9.2l12.6 12.6c3.1-1.1 6.7-.4 9.2 2.1 3.5 3.5 3.5 9.1 0 12.6-3.5 3.5-9.1 3.5-12.6 0-2.8-2.8-3.4-7-1.6-10.2L68.3 43.7v32.3c.8.4 1.6 1 2.3 1.8 3.5 3.5 3.5 9.1 0 12.6-3.5 3.5-9.1 3.5-12.6 0-3.5-3.5-3.5-9.1 0-12.6.9-.9 1.9-1.5 3-2V43.1c-1.1-.4-2.1-1.1-3-2-2.8-2.8-3.4-7-1.6-10.2L43.3 17.8 3.5 57.6c-3.2 3.2-3.2 8.4 0 11.6l53.8 53.8c3.2 3.2 8.4 3.2 11.6 0l55.6-55.7c3.2-3.2 3.2-8.4 0-11.6z"/></svg>