<svg xmlns="http://www.w3.org/2000/svg" viewBox="0 0 128 128"><path fill="#181717" d="M64 5.6C28.7 5.6 0 34.3 0 69.6c0 28.3 18.3 52.3 43.7 60.8 3.2.6 4.4-1.4 4.4-3 0-1.6-.2-6.6-.2-11.8-16.8 3.6-20.8-4-22.2-7.8-.8-2-4-7.8-6.8-9.4-2.2-1.2-5.6-4.2-.2-4.2 5 0 8.6 4.8 9.8 6.6 5.6 9.6 14.8 6.8 18.4 5.2.6-4 2.2-6.8 4-8.2-14.2-1.6-28.8-7-28.8-31.6 0-7 2.4-12.6 6.4-17.2-.6-1.6-2.8-8.2.6-17 0 0 5.2-1.6 17.4 6.6 5-1.4 10.4-2 15.8-2s10.6.8 15.8 2c12-8.4 17.4-6.6 17.4-6.6 3.4 8.8 1.2 15.4.6 17 4 4.6 6.4 10.2 6.4 17.2 0 24.6-14.8 30-28.8 31.6 2.2 2 4.2 5.8 4.2 11.8 0 8.4-.2 15.2-.2 17.2 0 1.6 1.2 3.6 4.4 3C109.7 121.9 128 97.9 128 69.6 128 34.3 99.3 5.6 64 5.6z"/></svg>