<svg xmlns="http://www.w3.org/2000/svg" viewBox="0 0 128 128"><path fill="#ED8B00" d="M47.617 98.12s-4.767 2.774 3.397 3.71c9.892 1.13 14.947.968 25.815-1.212 0 0 1.44 6.2-9.963 10.968-11.405 4.77-25.471-.19-35.34-7.338-9.87-7.15-7.613-17.09-3.317-21.878 4.296-4.79 11.61-6.518 11.61-6.518s-6.58 2.328-7.927 5.48c-1.348 3.15-.626 7.044-.626 7.044s-4.557-2.59-4.557-8.83c0-6.24 7.373-13.273 19.41-13.273 12.037 0 18.67 5.81 18.67 5.81s-5.77-4.77-14.43-4.77c-8.66 0-12.83 4.77-12.83 4.77s-3.15-3.15 5.48-8.07c8.63-4.92 28.2-6.07 28.2-6.07l-7.37-2.77zM44.67 64.33s-12.2 2.77-6.52 7.7c5.68 4.93 12.2 2.77 12.2 2.77s-5.68-3.62-5.68-10.47z"/><path fill="#5382A1" d="M93.2 109.66s3.1-2.32-2.25-4.14c-5.35-1.82-18.08-4.14-22.38-.6-4.3 3.54 0 6.65 0 6.65s-6.11-3.54 7.07-7.65c13.18-4.11 22.38 2.15 22.38 2.15s-2.8-1.21-4.82-1.21z"/><path fill="#E76F00" d="M76.5 82.76s8.69 3.55 4.62 9.2c-4.07 5.65-15.1 5.06-19.18 2.06-4.08-3 1.83-6.13 1.83-6.13s-3.39 2.06 1.83 4.6c5.22 2.54 12.83 1.52 12.83 1.52s-5.73-1.52-5.73-5.06c0-3.54 3.81-4.19 3.81-6.19z"/></svg>