<svg xmlns="http://www.w3.org/2000/svg" viewBox="0 0 128 128"><path fill="#F7DF1E" d="M1.402 92.408l8.462-52.04c.56-3.383 2.75-4.436 5.602-4.436h66.4s4.2-.56 3.94 3.94c-.14 2.1-1.26 14.28-1.26 14.28H68.4s-2.52 3.36.42 4.2c2.94.84 15.4-7.14 15.4-7.14s1.68-5.46 4.62-4.62c2.94.84-10.08 17.22-10.08 17.22s-1.26 3.78 2.52 4.62c3.78.84 12.18-6.72 12.18-6.72s1.26-1.26 2.94 1.26c-5.46 5.04-15.96 8.82-26.46 8.82-13.44 0-22.26-6.3-22.26-19.32 0-13.02 8.82-18.9 21.42-18.9 12.18 0 18.06 4.62 18.06 4.62l-2.52 6.72s-4.2-2.52-10.5-2.52c-6.3 0-10.08 2.52-10.08 7.56 0 5.04 5.04 6.72 10.92 6.72 5.88 0 9.66-1.68 9.66-1.68l-52.5.42z"/></svg>