<svg xmlns="http://www.w3.org/2000/svg" viewBox="0 0 128 128"><path fill="#47A248" d="M82.5 18.2c-3.6-6.4-7.8-11.8-8.4-12.4-1.4-1.2-2.6-.6-2.6 1.4 0 1.6.2 4.8.4 7.2.2 3.2.2 6-.2 6.8-.6 1.2-1.8 1.2-2.4.2-.6-.8-.6-3.6-.4-6.8.2-3.2.2-6.4-.2-7.6-.4-1.2-1.4-1.6-2.4-1-1.6 1-5 5.4-7 9.2-8 15.2-12.2 34-11 50.4.6 7.2 2 16.4 4 23.6 1.6 5.6 3.6 11.2 6 15.6 2 3.6 4 6.4 5.2 8 .6.8 1.2 1.2 1.6 1.2h.4c.4 0 1-.4 1.6-1.2 1.2-1.6 3.2-4.4 5.2-8 2.4-4.4 4.4-10 6-15.6 2-7.2 3.4-16.4 4-23.6 1.2-16.4-3-35.2-11-50.4z"/></svg>