<svg xmlns="http://www.w3.org/2000/svg" viewBox="0 0 128 128"><path fill="#336791" d="M97.9 15.5C89.6 7.4 75.7 3.3 64.7 3.3c-8.7 0-17.3 2.4-24 7.1C32.8 16.2 27 25 27 35.4v1.2c0 .6 0 1.2.1 1.8-1.3 5.2-1.8 10.6-1.3 16 .5 5.8 2 11.4 4.3 16.5 2.7 5.8 6.6 10.8 11.3 14.7 2.3 1.9 4.8 3.5 7.4 4.8-1.5 2.7-2.5 5.6-3 8.6-.4 2.8-.3 5.7.2 8.5.4 2.4 1.2 4.7 2.4 6.8 1.6 2.8 3.8 5.2 6.5 6.9 3.6 2.2 7.8 3.3 12 3.3 3.8 0 7.6-.9 11-2.7 2.8-1.5 5.2-3.6 7-6.1 1.2-1.6 2.1-3.4 2.7-5.3.5-1.6.7-3.3.6-5 0-1.2-.2-2.4-.5-3.5-.4-1.2-1-2.3-1.8-3.3 3.8-1.8 7.2-4.2 10.1-7.1 3.8-3.8 6.7-8.4 8.5-13.4 1.9-5.3 2.7-11 2.2-16.6-.4-4.8-1.8-9.4-4-13.5-1.8-3.4-4.2-6.4-7-8.9-2.2-1.9-4.6-3.5-7.2-4.8 1.8-3.8 2.8-8 2.8-12.3 0-3.8-1-7.4-2.8-10.7z"/></svg>