<svg xmlns="http://www.w3.org/2000/svg" viewBox="0 0 128 128"><path fill="#3776AB" d="M63.4 14c-17 0-15.8 7.4-15.8 7.4l.1 8h16v2.4H37.4S28 30.2 28 47.4c0 17.2 7.8 16.6 7.8 16.6h4.6v-8s-.4-7.8 7.6-7.8h13.2s7.4.1 7.4-7.2v-13c0-7.2-7.8-7.2-7.8-7.2h-11s-1.6-.1-1.6-1.6c0-1.5 1.6-1.6 1.6-1.6h20.2s7.2 0 7.2-7.2V15.6S82 14 63.4 14zM49 20.8c1.6 0 2.8 1.3 2.8 2.8 0 1.6-1.3 2.8-2.8 2.8-1.6 0-2.8-1.3-2.8-2.8 0-1.5 1.3-2.8 2.8-2.8z"/><path fill="#3776AB" d="M64.6 114c17 0 15.8-7.4 15.8-7.4l-.1-8h-16v-2.4h26.4S100 97.8 100 80.6c0-17.2-7.8-16.6-7.8-16.6h-4.6v8s.4 7.8-7.6 7.8H66.8s-7.4-.1-7.4 7.2v13c0 7.2 7.8 7.2 7.8 7.2h11s1.6.1 1.6 1.6c0 1.5-1.6 1.6-1.6 1.6H46.4s-7.2 0-7.2 7.2v15.4S38 114 64.6 114zm14.4-6.8c-1.6 0-2.8-1.3-2.8-2.8 0-1.6 1.3-2.8 2.8-2.8 1.6 0 2.8 1.3 2.8 2.8 0 1.5-1.3 2.8-2.8 2.8z"/></svg>