<svg xmlns="http://www.w3.org/2000/svg" viewBox="0 0 128 128"><path fill="#6DB33F" d="M117.94 29.25c-7.43-12.93-21.1-21.28-36.04-21.28-17.45 0-32.95 10.67-39.4 26.57C37.36 21.62 21.7 13.1 5.62 17.72-2.12 20.44-5.5 31.38 2.24 38.11c5.9 5.12 13.52 5.6 20.1 2.92 2.72-1.1 5.16-2.8 7.1-4.92 8.44 14.6 24.3 24.12 42.24 24.12 3.76 0 7.42-.44 10.94-1.26l.86-.2c5.58-1.26 11-3.5 15.92-6.6 6.44-4.02 11.64-9.48 15.14-15.84 2.42-4.4 4.1-9.2 4.96-14.2.24-1.36.4-2.74.48-4.12.04-.56.06-1.12.08-1.68.64-.12 1.28-.26 1.9-.42a56.64 56.64 0 003.56-1.12z"/><circle fill="#6DB33F" cx="78.4" cy="71.3" r="48.7" fill-opacity="0"/><path fill="#6DB33F" d="M99.76 118.3c-4.5 3.48-9.84 6.06-15.7 7.56a55.86 55.86 0 01-17.66 1.76c-3.88-.22-7.7-.8-11.38-1.76-5.88-1.5-11.22-4.08-15.72-7.56-3.98-3.08-7.16-6.92-9.38-11.28-1.06-2.08-1.88-4.28-2.44-6.56l-.18-.8c1.22 4.78 3.56 9.38 7.06 13.28 4.5 3.48 9.84 6.06 15.7 7.56 5.86 1.5 11.94 2.08 17.66 1.76 5.72-.32 11.26-1.6 16.32-3.8l.36-.16c.86-.38 1.7-.78 2.52-1.2l.34-.18a46.28 46.28 0 005.12-3.12z"/></svg>