<svg xmlns="http://www.w3.org/2000/svg" viewBox="0 0 128 128"><path fill="#6DB33F" d="M63.8 14C33.6 14 9 38.6 9 68.8c0 19.4 10 36.6 25.4 46.4l6.4-8.8C30.2 98.4 23 84.4 23 68.8c0-22.4 18.2-40.6 40.6-40.6 22.4 0 40.6 18.2 40.6 40.6 0 15.6-7.2 29.6-17.8 37.6l6.4 8.8c15.4-9.8 25.4-27 25.4-46.4C118.6 38.6 94 14 63.8 14z"/><path fill="#6DB33F" d="M63.8 34c-19.2 0-34.8 15.6-34.8 34.8 0 12.4 6.4 23.2 16 29.2l5.2-7.2c-7.6-4.4-12.4-12.4-12.4-21.6 0-13.8 11.2-25 25-25s25 11.2 25 25c0 9.2-4.8 17.2-12.4 21.6l5.2 7.2c9.6-6 16-16.8 16-29.2 0-19.2-15.6-34.8-34.8-34.8z"/><circle fill="#6DB33F" cx="63.8" cy="68.8" r="15"/></svg>