<svg xmlns="http://www.w3.org/2000/svg" viewBox="0 0 128 128"><path fill="#3178C6" d="M2 63.91v62.5h125V1.41H2zm100.73-5.36h-7.17V83.67c0 7.11 3.92 9.47 8.62 9.47 3.22 0 6.08-.79 8.07-1.77v-6.65c-1.97.87-4.39 1.53-7.07 1.53-3.46 0-5.56-1.34-5.56-5.97V58.55zm-29.06 54c-4.31 0-7.78-1.53-10.51-4.56l4.31-5.36c1.97 2.09 4.15 3.39 6.47 3.39 2.52 0 3.94-1.18 3.94-3.22 0-2.21-1.77-3.07-5.4-4.52l-3.7-1.45c-5.97-2.33-9.1-5.72-9.1-11.12 0-5.88 4.27-10.39 11.66-10.39 4.63 0 8.23 1.45 10.83 4.15l-4.47 5.28c-2.09-1.87-3.94-2.73-6.12-2.73-2.33 0-3.7 1.26-3.7 3.07 0 1.97 1.53 2.85 5.08 4.31l3.7 1.45c6.69 2.52 9.87 5.97 9.87 11.35 0 6.61-4.87 10.72-12.26 10.72z"/></svg>